# xmcd CD database file
#
# Track frame offsets:
#	150
#	4332
#	21790
#	30877
#	53267
#	65032
#	95432
#	104000
#	126062
#	141810
#	162082
#	188335
#
# Disc length: 2637 seconds
#
# Revision: 0
# Processed by: cddbd v1.5.2PL0 Copyright (c) Steve Scherf et al.
# Submitted via: CDex 1.40PlusFr
#
DISCID=8e0a4b0c
DTITLE=bongshang - crude
DYEAR=1995
DGENRE=Country
TTITLE0=le introducement
TTITLE1=things to come
TTITLE2=the floggin set
TTITLE3=if and when
TTITLE4=lee highway blues
TTITLE5=phosphene - tamlinn
TTITLE6=the hangmans reel
TTITLE7=dig a hole
TTITLE8=scotland - frosty morning
TTITLE9=A.K.A. crude
TTITLE10=wedding row
TTITLE11=reprise
EXTD=YEAR: 1995 ID3G: 2
EXTT0=
EXTT1=
EXTT2=
EXTT3=
EXTT4=
EXTT5=
EXTT6=
EXTT7=
EXTT8=
EXTT9=
EXTT10=
EXTT11=
PLAYORDER=
